<?xml version="1.0" encoding="utf-8"?>
<!-- Generator: Adobe Illustrator 15.0.0, SVG Export Plug-In . SVG Version: 6.00 Build 0)  -->
<!DOCTYPE svg PUBLIC "-//W3C//DTD SVG 1.1//EN" "http://www.w3.org/Graphics/SVG/1.1/DTD/svg11.dtd">
<svg version="1.1" id="Layer_1" xmlns="http://www.w3.org/2000/svg" xmlns:xlink="http://www.w3.org/1999/xlink" x="0px" y="0px"
	 width="65.15px" height="65.15px" viewBox="0 0 65.15 65.15" enable-background="new 0 0 65.15 65.15" xml:space="preserve">
<g>
	<g>
		<path fill="#fefefe" d="M32.575,2.575c-16.568,0-30,13.432-30,30s13.432,30,30,30s30-13.433,30-30S49.143,2.575,32.575,2.575z
			 M32.575,55.79c-12.822,0-23.216-10.394-23.216-23.215c0-12.822,10.394-23.217,23.216-23.217
			c12.823,0,23.218,10.395,23.218,23.217C55.792,45.396,45.398,55.79,32.575,55.79z"/>
		<path fill="#fefefe" d="M32.575,17.18c-8.502,0-15.396,6.894-15.396,15.396s6.894,15.396,15.396,15.396
			c8.504,0,15.396-6.894,15.396-15.396S41.079,17.18,32.575,17.18z M40.871,44.037l-8.311-6.036l-8.309,6.036l3.174-9.769
			l-8.312-6.038h10.271l3.175-9.769l3.175,9.769h10.271l-8.309,6.038L40.871,44.037z"/>
	</g>
</g>
</svg>
